<?xml version="1.0" encoding="utf-8"?>
<!-- Generator: Adobe Illustrator 15.0.0, SVG Export Plug-In . SVG Version: 6.00 Build 0)  -->
<!DOCTYPE svg PUBLIC "-//W3C//DTD SVG 1.1//EN" "http://www.w3.org/Graphics/SVG/1.1/DTD/svg11.dtd">
<svg version="1.1" id="图层_1" xmlns="http://www.w3.org/2000/svg" xmlns:xlink="http://www.w3.org/1999/xlink" x="0px" y="0px"
	 width="100px" height="100px" viewBox="0 0 100 100" enable-background="new 0 0 100 100" xml:space="preserve">
<g>
	<path fill-rule="evenodd" clip-rule="evenodd" fill="none" stroke="#FFFFFF" stroke-miterlimit="10" d="M41.424,12.424
		L59.982,37.83l18.18-25.406H41.424z"/>
	<path fill-rule="evenodd" clip-rule="evenodd" fill="none" stroke="#FFFFFF" stroke-miterlimit="10" d="M1.128,12.424l9.011,12.29
		h17.215l-8.977-12.29H1.128L1.128,12.424z M47.285,51.996c-17.086,5.335-29.573,21.112-29.943,39.846H1.25
		C2.812,73.34,12.407,57.446,26.729,47.427L11.917,27.14h17.21l14.604,19.993L47.285,51.996z"/>
	<path fill-rule="evenodd" clip-rule="evenodd" fill="none" stroke="#FFFFFF" stroke-miterlimit="10" d="M68.396,53.521
		C85.92,57.493,99,73.141,99,91.842H85.879c0-14.464-11.742-26.191-26.227-26.191c-14.484,0-26.226,11.728-26.226,26.191H20.305
		c0-18.856,13.301-34.608,31.042-38.417L21.363,12.424h17.249l21.371,29.255l20.935-29.255h17.216L68.396,53.521z"/>
</g>
</svg>
